<svg xmlns="http://www.w3.org/2000/svg" width="77.085" height="77.085" viewBox="0 0 77.085 77.085">
  <path id="MaterialSymbolsStarsOutline" d="M25.126,63.668,40.543,51.913,55.96,63.668,50.178,44.59,65.6,33.6H46.709L40.543,13.563,34.376,33.6H15.49L30.907,44.59ZM40.543,79.085a37.51,37.51,0,0,1-15.032-3.037A38.458,38.458,0,0,1,5.037,55.574,37.51,37.51,0,0,1,2,40.543,37.51,37.51,0,0,1,5.037,25.511,38.482,38.482,0,0,1,25.511,5.033,37.552,37.552,0,0,1,40.543,2,37.552,37.552,0,0,1,55.574,5.033,38.482,38.482,0,0,1,76.048,25.511a37.51,37.51,0,0,1,3.037,15.032,37.51,37.51,0,0,1-3.037,15.032A38.458,38.458,0,0,1,55.574,76.048,37.51,37.51,0,0,1,40.543,79.085Zm0-7.709a29.759,29.759,0,0,0,21.873-8.961,29.759,29.759,0,0,0,8.961-21.873A29.759,29.759,0,0,0,62.416,18.67,29.759,29.759,0,0,0,40.543,9.709,29.759,29.759,0,0,0,18.67,18.67,29.759,29.759,0,0,0,9.709,40.543,29.759,29.759,0,0,0,18.67,62.416,29.759,29.759,0,0,0,40.543,71.377ZM40.543,40.543Z" transform="translate(-2 -2)" fill="#67a6ad"/>
</svg>
